<svg width="100" height="27" viewBox="0 0 100 27" fill="none" xmlns="http://www.w3.org/2000/svg">
<path fill-rule="evenodd" clip-rule="evenodd" d="M0 26.5432H9.51315C18.5067 26.5432 25.0384 22.9413 25.0384 13.2716C25.0384 3.60187 18.5067 0 9.51315 0L0 0L0 26.5432ZM7.27648 20.3621L7.27648 6.1811L9.59055 6.1811C14.7031 6.1811 17.8358 7.99991 17.8358 13.2716C17.8358 18.5421 14.7031 20.3621 9.59055 20.3621H7.27648ZM29.2537 26.5432L49.0682 26.5432L49.0682 20.5898H36.5302V16.0785H48.9556V10.3896L36.5302 10.3896V5.95226L49.0682 5.95226V0L29.2537 0L29.2537 26.5432ZM54.2546 26.5432L61.5287 26.5432L61.5287 17.8973H65.8589C72.3871 17.8973 76.7549 15.0916 76.7549 8.94865C76.7549 2.80569 72.3871 0 65.8589 0L54.2546 0L54.2546 26.5432ZM61.5287 12.1703V5.72699L65.7088 5.72699C68.3947 5.72699 69.7013 6.82591 69.7013 8.94865C69.7013 11.0726 68.3947 12.1703 65.7088 12.1703H61.5287ZM85.4858 26.5432H92.7599V6.21924L100 6.21924V0L78.2468 0V6.21924L85.4858 6.21924V26.5432Z" fill="white"/>
</svg>
